{
  "accessors": [
    {
      "bufferView": 2,
      "componentType": 5126,
      "count": 144,
      "max": [
        -0.9386789798736572,
        0.056946299970149994,
        0.17670199275016785
      ],
      "min": [
        -0.9670450091362,
        -0.057200200855731964,
        0.06255579739809036
      ],
      "type": "VEC3"
    },
    {
      "bufferView": 2,
      "byteOffset": 1728,
      "componentType": 5126,
      "count": 144,
      "max": [
        2.3583299935125979e-07,
        1.0,
        1.0
      ],
      "min": [
        -0.9883122444152832,
        -1.0,
        -1.0
      ],
      "type": "VEC3"
    },
    {
      "bufferView": 3,
      "componentType": 5126,
      "count": 144,
      "max": [
        0.5263654589653015,
        1.0,
        1.0,
        1.0
      ],
      "min": [
        -0.19290845096111298,
        -1.0,
        -1.0,
        1.0
      ],
      "type": "VEC4"
    },
    {
      "bufferView": 1,
      "componentType": 5126,
      "count": 144,
      "max": [
        0.7333459854125977,
        0.734673023223877
      ],
      "min": [
        0.10587500035762787,
        0.2311840057373047
      ],
      "type": "VEC2"
    },
    {
      "bufferView": 0,
      "componentType": 5125,
      "count": 360,
      "type": "SCALAR"
    },
    {
      "bufferView": 2,
      "byteOffset": 3456,
      "componentType": 5126,
      "count": 853,
      "max": [
        -0.4588020145893097,
        0.07566849887371063,
        0.35184600949287415
      ],
      "min": [
        -1.0,
        -0.07566849887371063,
        -0.35184600949287415
      ],
      "type": "VEC3"
    },
    {
      "bufferView": 2,
      "byteOffset": 13692,
      "componentType": 5126,
      "count": 853,
      "max": [
        0.9999953508377075,
        1.0,
        0.9993323683738708
      ],
      "min": [
        -1.0,
        -1.0,
        -0.999995231628418
      ],
      "type": "VEC3"
    },
    {
      "bufferView": 3,
      "byteOffset": 2304,
      "componentType": 5126,
      "count": 853,
      "max": [
        0.9999997615814209,
        0.9957857131958008,
        0.999520480632782,
        1.0
      ],
      "min": [
        -0.9332970380783081,
        -0.9909679293632507,
        -0.9999892711639404,
        1.0
      ],
      "type": "VEC4"
    },
    {
      "bufferView": 1,
      "byteOffset": 1152,
      "componentType": 5126,
      "count": 853,
      "max": [
        0.7366089820861816,
        0.9727780222892761
      ],
      "min": [
        0.002525520045310259,
        0.22352799773216248
      ],
      "type": "VEC2"
    },
    {
      "bufferView": 0,
      "byteOffset": 1440,
      "componentType": 5125,
      "count": 3198,
      "type": "SCALAR"
    },
    {
      "bufferView": 2,
      "byteOffset": 23928,
      "componentType": 5126,
      "count": 569,
      "max": [
        1.0,
        0.05387840047478676,
        0.18481799960136414
      ],
      "min": [
        -0.9890400171279907,
        -0.05413230136036873,
        -0.06299369782209396
      ],
      "type": "VEC3"
    },
    {
      "bufferView": 2,
      "byteOffset": 30756,
      "componentType": 5126,
      "count": 569,
      "max": [
        0.9999940991401672,
        0.9999966621398926,
        0.9998685121536255
      ],
      "min": [
        -1.0,
        -0.9999966621398926,
        -0.999999463558197
      ],
      "type": "VEC3"
    },
    {
      "bufferView": 3,
      "byteOffset": 15952,
      "componentType": 5126,
      "count": 569,
      "max": [
        0.4615636467933655,
        0.9999922513961792,
        0.9999909400939941,
        1.0
      ],
      "min": [
        -0.8603677749633789,
        -0.9998927116394043,
        -0.9999822974205017,
        1.0
      ],
      "type": "VEC4"
    },
    {
      "bufferView": 1,
      "byteOffset": 7976,
      "componentType": 5126,
      "count": 569,
      "max": [
        0.9807569980621338,
        0.978003978729248
      ],
      "min": [
        0.4542030096054077,
        0.018003499135375023
      ],
      "type": "VEC2"
    },
    {
      "bufferView": 0,
      "byteOffset": 14232,
      "componentType": 5125,
      "count": 2874,
      "type": "SCALAR"
    }
  ],
  "asset": {
    "extras": {
      "author": "Vanya Mazalevich (https://sketchfab.com/VanyaMazalevich)",
      "license": "CC-BY-4.0 (http://creativecommons.org/licenses/by/4.0/)",
      "source": "https://sketchfab.com/3d-models/leviathan-axe-64a07e5622514582998f7fe5986bf0f2",
      "title": "Leviathan axe"
    },
    "generator": "Sketchfab-12.68.0",
    "version": "2.0"
  },
  "bufferViews": [
    {
      "buffer": 0,
      "byteLength": 25728,
      "name": "floatBufferViews",
      "target": 34963
    },
    {
      "buffer": 0,
      "byteLength": 12528,
      "byteOffset": 25728,
      "byteStride": 8,
      "name": "floatBufferViews",
      "target": 34962
    },
    {
      "buffer": 0,
      "byteLength": 37584,
      "byteOffset": 38256,
      "byteStride": 12,
      "name": "floatBufferViews",
      "target": 34962
    },
    {
      "buffer": 0,
      "byteLength": 25056,
      "byteOffset": 75840,
      "byteStride": 16,
      "name": "floatBufferViews",
      "target": 34962
    }
  ],
  "buffers": [
    {
      "byteLength": 100896,
      "uri": "scene.bin"
    }
  ],
  "images": [
    {
      "uri": "textures/Material__26_baseColor.jpeg"
    },
    {
      "uri": "textures/Material__26_metallicRoughness.png"
    },
    {
      "uri": "textures/Material__26_normal.png"
    },
    {
      "uri": "textures/Material__27_baseColor.jpeg"
    },
    {
      "uri": "textures/Material__27_metallicRoughness.png"
    },
    {
      "uri": "textures/Material__27_emissive.jpeg"
    },
    {
      "uri": "textures/Material__27_normal.png"
    }
  ],
  "materials": [
    {
      "doubleSided": true,
      "name": "Material__26",
      "normalTexture": {
        "index": 2
      },
      "pbrMetallicRoughness": {
        "baseColorTexture": {
          "index": 0
        },
        "metallicRoughnessTexture": {
          "index": 1
        }
      }
    },
    {
      "doubleSided": true,
      "emissiveFactor": [
        1.0,
        1.0,
        1.0
      ],
      "emissiveTexture": {
        "index": 5
      },
      "name": "Material__27",
      "normalTexture": {
        "index": 6
      },
      "pbrMetallicRoughness": {
        "baseColorTexture": {
          "index": 3
        },
        "metallicRoughnessTexture": {
          "index": 4
        }
      }
    }
  ],
  "meshes": [
    {
      "name": "defaultMaterial",
      "primitives": [
        {
          "attributes": {
            "NORMAL": 1,
            "POSITION": 0,
            "TANGENT": 2,
            "TEXCOORD_0": 3
          },
          "indices": 4,
          "material": 1,
          "mode": 4
        }
      ]
    },
    {
      "name": "defaultMaterial",
      "primitives": [
        {
          "attributes": {
            "NORMAL": 6,
            "POSITION": 5,
            "TANGENT": 7,
            "TEXCOORD_0": 8
          },
          "indices": 9,
          "material": 1,
          "mode": 4
        }
      ]
    },
    {
      "name": "defaultMaterial",
      "primitives": [
        {
          "attributes": {
            "NORMAL": 11,
            "POSITION": 10,
            "TANGENT": 12,
            "TEXCOORD_0": 13
          },
          "indices": 14,
          "material": 0,
          "mode": 4
        }
      ]
    }
  ],
  "nodes": [
    {
      "children": [
        1
      ],
      "matrix": [
        -8.39196171956524e-17,
        -0.3779403567314148,
        -1.678392343913048e-16,
        0.0,
        0.3779403567314148,
        -8.39196171956524e-17,
        -1.86338982456685e-32,
        0.0,
        0.0,
        -1.678392343913048e-16,
        0.3779403567314148,
        0.0,
        -8.940696716308594e-07,
        -4.4100553964199197e-07,
        -4.5820911509508743e-07,
        1.0
      ],
      "name": "Sketchfab_model"
    },
    {
      "children": [
        2,
        4,
        6
      ],
      "matrix": [
        1.0,
        0.0,
        0.0,
        0.0,
        0.0,
        -4.371139006309477e-08,
        0.999999999999999,
        0.0,
        0.0,
        -0.999999999999999,
        -4.371139006309477e-08,
        0.0,
        0.0,
        0.0,
        0.0,
        1.0
      ],
      "name": "Collada visual scene group"
    },
    {
      "children": [
        3
      ],
      "name": "Tube001"
    },
    {
      "mesh": 0,
      "name": "defaultMaterial"
    },
    {
      "children": [
        5
      ],
      "name": "Plane004"
    },
    {
      "mesh": 1,
      "name": "defaultMaterial"
    },
    {
      "children": [
        7
      ],
      "name": "Cylinder002"
    },
    {
      "mesh": 2,
      "name": "defaultMaterial"
    }
  ],
  "samplers": [
    {
      "magFilter": 9729,
      "minFilter": 9987,
      "wrapS": 10497,
      "wrapT": 10497
    }
  ],
  "scene": 0,
  "scenes": [
    {
      "name": "Sketchfab_Scene",
      "nodes": [
        0
      ]
    }
  ],
  "textures": [
    {
      "sampler": 0,
      "source": 0
    },
    {
      "sampler": 0,
      "source": 1
    },
    {
      "sampler": 0,
      "source": 2
    },
    {
      "sampler": 0,
      "source": 3
    },
    {
      "sampler": 0,
      "source": 4
    },
    {
      "sampler": 0,
      "source": 5
    },
    {
      "sampler": 0,
      "source": 6
    }
  ]
}
